{"title":"Dark Shadows","uid":14745215,"size":3830616174,"categoryP":"video","categoryS":"hd___movies","magnet":"?xt=urn:btih:c5ce3257279f70e94f1b26586270a268bc9e9f48&amp;dn=Dark+Shadows&amp;tr=udp%3A%2F%2Ftracker.leechers-paradise.org%3A6969&amp;tr=udp%3A%2F%2Fzer0day.ch%3A1337&amp;tr=udp%3A%2F%2Fopen.demonii.com%3A1337&amp;tr=udp%3A%2F%2Ftracker.coppersurfer.tk%3A6969&amp;tr=udp%3A%2F%2Fexodus.desync.com%3A6969","seeders":0,"leechers":3,"uploader":"fant44000","files":1,"time":1464716752,"description":"Torrent encoded using x265 codec. You need a suitable player for this kind of file.\r\n\r\nEnjoy - Fant_44000\r\n\r\n\r\n\r\nMediainfo:\r\nGeneral\r\nFormat                                   : Matroska\r\nFormat version                           : Version 2\r\nFile size                                : 3.57 GiB\r\nDuration                                 : 1h 53mn\r\nOverall bit rate                         : 4 516 Kbps\r\nMovie name                               : Dark Shadows\r\nEncoded date                             : UTC 2016-05-31T07:20:39Z\r\nWriting application                      : HandBrake 0.10.5 2016021100\r\nWriting library                          : Lavf55.12.0 / Lavf55.12.0\r\n\r\nVideo\r\nID                                       : 1\r\nFormat                                   : HEVC\r\nFormat/Info                              : High Efficiency Video Coding\r\nFormat profile                           :   @Main\r\nCodec ID                                 : V_MPEGH/ISO/HEVC\r\nDuration                                 : 1h 53mn\r\nBit rate                                 : 2 917 Kbps\r\nWidth                                    : 1 920 pixels\r\nHeight                                   : 1 080 pixels\r\nDisplay aspect ratio                     : 16:9\r\nFrame rate mode                          : Constant\r\nFrame rate                               : 23.976 (24000/1001) fps\r\nColor space                              : YUV\r\nChroma subsampling                       : 4:2:0\r\nBit depth                                : 8 bits\r\nBits/(Pixel*Frame)                       : 0.059\r\nStream size                              : 2.30 GiB (65%)\r\nWriting library                          : x265 1.9:[Windows][GCC 4.9.0][64 bit] 8bit\r\n\r\nDefault                                  : Yes\r\nForced                                   : No\r\nColor range                              : Limited\r\nColor primaries                          : BT.709\r\nTransfer characteristics                 : BT.709\r\nMatrix coefficients                      : BT.709\r\n\r\nAudio\r\nID                                       : 2\r\nFormat                                   : DTS\r\nFormat/Info                              : Digital Theater Systems\r\nMode                                     : 16\r\nFormat settings, Endianness              : Big\r\nCodec ID                                 : A_DTS\r\nDuration                                 : 1h 53mn\r\nBit rate mode                            : Constant\r\nBit rate                                 : 1 509 Kbps\r\nChannel(s)                               : 6 channels\r\nChannel positions                        : Front: L C R, Side: L R, LFE\r\nSampling rate                            : 48.0 KHz\r\nFrame rate                               : 93.750 fps (512 spf)\r\nBit depth                                : 16 bits\r\nCompression mode                         : Lossy\r\nStream size                              : 1.19 GiB (33%)\r\nTitle                                    : Surround\r\nLanguage                                 : English\r\nDefault                                  : Yes\r\nForced                                   : No\r\n\r\nText #1\r\nCodec ID/Info                            : Picture based subtitle format used on BDs/HD-DVDs\r\nLanguage                                 : English\r\nLanguage                                 : Arabic\r\nLanguage                                 : Bulgarian\r\nLanguage                                 : Czech\r\nLanguage                                 : Danish\r\nLanguage                                 : Estonian\r\nLanguage                                 : Finnish\r\nLanguage                                 : Hebrew\r\nLanguage                                 : Hungarian\r\nLanguage                                 : Icelandic\r\nLanguage                                 : Latvian\r\nLanguage                                 : Lithuanian\r\nLanguage                                 : Norwegian\r\nLanguage                                 : Polish\r\nLanguage                                 : Portuguese\r\nLanguage                                 : Romanian\r\nLanguage                                 : Russian\r\nLanguage                                 : Serbian\r\nLanguage                                 : Slovenian\r\nLanguage                                 : Swedish\r\nLanguage                                 : Turkish","torrent":{"xt":"urn:btih:c5ce3257279f70e94f1b26586270a268bc9e9f48","amp;dn":"Dark+Shadows","amp;tr":["udp%3A%2F%2Ftracker.leechers-paradise.org%3A6969","udp%3A%2F%2Fzer0day.ch%3A1337","udp%3A%2F%2Fopen.demonii.com%3A1337","udp%3A%2F%2Ftracker.coppersurfer.tk%3A6969","udp%3A%2F%2Fexodus.desync.com%3A6969"],"infoHash":"c5ce3257279f70e94f1b26586270a268bc9e9f48","infoHashBuffer":{"type":"Buffer","data":[197,206,50,87,39,159,112,233,79,27,38,88,98,112,162,104,188,158,159,72]},"announce":[],"urlList":[]}}